<svg xmlns="http://www.w3.org/2000/svg" version="1.1" xmlns:xlink="http://www.w3.org/1999/xlink" xmlns:svgjs="http://svgjs.dev/svgjs" viewBox="0 0 1920 1080"><rect width="1920" height="1080" fill="#2ea8c0"></rect><g transform="matrix(-1.15,1.408343819019456e-16,-1.408343819019456e-16,-1.15,2005.1682891845703,1161)"><path d="M0,-1080C11.42011640935938,-983.5802509227311,77.45453865946271,-691.6005509224537,68.52069845615628,-501.48150553638686C59.58685825284985,-311.36246015032,-44.06936507765973,-99.86148894931361,-53.6030412198386,60.71427231640166C-63.13671736201747,221.29003358211693,-9.48262633964088,286.79320107828204,11.318641603083051,461.97306205790466C32.11990954580698,637.1529230375272,60.58268232241817,915.1277758594916,71.20456643650499,1111.7934381941373C81.82645055059182,1308.459100528783,86.91737402702147,1467.265942431468,75.04994628760397,1641.9670360657783C63.18251854818647,1816.6681297000887,12.508324381267329,2073.6611726776296,0,2160L 1920 2160 L 1920 -1080 Z" fill="url(&quot;#SvgjsLinearGradient1519&quot;)"></path><path d="M480,-1080C486.6171318079633,-992.1090680812338,532.4728464493204,-744.9141962800473,519.7027908477796,-552.6544084874029C506.93273524623885,-360.3946206947584,406.6518348214742,-121.0143941127779,403.37966639075546,73.55872675586667C400.1074979600367,268.13184762451124,486.2880799707465,444.6150327705765,500.06978026346707,614.7843167244646C513.8514805561877,784.9536006783527,481.9134002798804,930.3001675840272,486.0698681470788,1094.5744304791951C490.2263360142772,1258.848693374363,526.0202321578372,1422.8589658420046,525.0085874666574,1600.429894095472C523.9969427754777,1778.0008223489394,487.5014312444429,2066.7383156825786,480,2160L 1920 2160 L 1920 -1080 Z" fill="url(&quot;#SvgjsLinearGradient1520&quot;)"></path><path d="M960,-1080C946.9738854842146,-1003.3277918704658,869.7154927136875,-761.2206144681516,881.8433129052879,-619.9667512227948C893.9711330968884,-478.712887977438,1020.8936033682237,-383.1629837342731,1032.7669211496027,-232.47682052785956C1044.6402389309817,-81.79065732144602,977.6871182649185,125.3910778338512,953.0832195935618,284.15022801568654C928.4793209222051,442.90937819752185,889.6014405653989,566.2799103827654,885.143529121463,720.0780805631525C880.685617677527,873.8762507435397,923.1622838927591,1036.0828964912898,926.3357509299466,1206.9392490980097C929.5092179671341,1377.7956017047295,898.5736231662459,1586.3727377198072,904.1843313445881,1745.2161962034722C909.7950395229304,1904.0596546871373,950.6973885574314,2090.8693660339122,960,2160L 1920 2160 L 1920 -1080 Z" fill="url(&quot;#SvgjsLinearGradient1521&quot;)"></path><path d="M1440,-1080C1448.1658423441506,-980.5197703027069,1481.2949422776528,-659.7081872509145,1488.9950540649038,-483.11862181624144C1496.6951658521548,-306.52905638156835,1487.5620270460795,-192.53215297728042,1486.2006707235064,-20.462607391961328C1484.8393144009333,151.6069381933578,1483.5911431397371,355.95222918376294,1480.8269161294645,549.2986516956732C1478.0626891191919,742.6450742075835,1470.5590342110854,951.9411527607158,1469.6153086618701,1139.6159276795006C1468.6715831126548,1327.2907025982854,1480.1004476111518,1505.2832891549658,1475.1645628341735,1675.3473012083823C1470.228678057195,1845.4113132617988,1445.8607604723622,2079.224550201397,1440,2160L 1920 2160 L 1920 -1080 Z" fill="url(&quot;#SvgjsLinearGradient1522&quot;)"></path></g><defs><linearGradient x1="0.1" y1="0" x2="0" y2="1" id="SvgjsLinearGradient1519"><stop stop-color="#2ea8c0" offset="0"></stop><stop stop-color="#2ec0c0" offset="0"></stop></linearGradient><linearGradient x1="0.1" y1="0" x2="0" y2="1" id="SvgjsLinearGradient1520"><stop stop-color="#21798a" offset="0"></stop><stop stop-color="#218a89" offset="0.25"></stop></linearGradient><linearGradient x1="0.1" y1="0" x2="0" y2="1" id="SvgjsLinearGradient1521"><stop stop-color="#144954" offset="0"></stop><stop stop-color="#145454" offset="0.5"></stop></linearGradient><linearGradient x1="0.1" y1="0" x2="0" y2="1" id="SvgjsLinearGradient1522"><stop stop-color="#071a1d" offset="0"></stop><stop stop-color="#071d1c" offset="0.75"></stop></linearGradient></defs></svg>